<svg width="48" height="52" viewBox="0 0 48 52" fill="none" xmlns="http://www.w3.org/2000/svg">
<g filter="url(#filter0_d_290_40841)">
<g clip-path="url(#clip0_290_40841)">
<g clip-path="url(#clip1_290_40841)">
<path d="M34.1546 12.8571C34.1546 14.5125 32.7815 16.0661 30.4623 17.0625C28.1431 16.0661 26.77 14.5125 26.77 12.8571V12H24.9238V12.8571C24.9238 14.8929 26.2738 16.7518 28.5758 18.0536C26.2681 19.5482 24.9238 21.6857 24.9238 24C24.9238 26.3143 26.2738 28.4518 28.5758 29.9464C26.2681 31.2482 24.9238 33.1125 24.9238 35.1429V36H26.77V35.1429C26.77 33.4875 28.1431 31.9339 30.4623 30.9375C32.7815 31.9339 34.1546 33.4875 34.1546 35.1429V36H36.0008V35.1429C36.0008 33.1071 34.6508 31.2482 32.3488 29.9464C34.6565 28.4518 36.0008 26.3143 36.0008 24C36.0008 21.6857 34.6508 19.5482 32.3488 18.0536C34.6508 16.7518 36.0008 14.8929 36.0008 12.8571V12H34.1546V12.8571ZM34.1546 24C34.1546 25.9929 32.7815 27.8518 30.4623 29.0357C28.1431 27.8571 26.77 25.9982 26.77 24C26.77 22.0018 28.1431 20.1482 30.4623 18.9643C32.7815 20.1482 34.1546 22.0071 34.1546 24Z" fill="#40484C"/>
<path d="M30.2311 20.2074C29.2792 20.7806 28.5754 21.4984 28.1484 22.2859H32.7696C32.3427 21.4984 31.6388 20.7806 30.6869 20.2074C30.5484 20.1216 30.3754 20.1216 30.2311 20.2074Z" fill="#40484C"/>
<path d="M30.2312 27.7929C30.3005 27.8358 30.3812 27.8572 30.462 27.8572C30.5428 27.8572 30.6235 27.8358 30.6928 27.7929C31.6447 27.2197 32.3485 26.5019 32.7755 25.7144H28.1543C28.5755 26.5019 29.2793 27.2197 30.2312 27.7929Z" fill="#40484C"/>
<path d="M27.6914 24.0002C27.6914 24.2895 27.7376 24.5734 27.8126 24.8574H33.1087C33.1837 24.5734 33.2299 24.2895 33.2299 24.0002C33.2299 23.7109 33.1837 23.427 33.1087 23.1431H27.8126C27.7376 23.427 27.6914 23.7109 27.6914 24.0002Z" fill="#40484C"/>
<path d="M30.2312 15.7929C30.3005 15.8358 30.3812 15.8572 30.462 15.8572C30.5428 15.8572 30.6235 15.8358 30.6928 15.7929C31.6447 15.2197 32.3485 14.5019 32.7755 13.7144H28.1543C28.5755 14.5019 29.2793 15.2197 30.2312 15.7929Z" fill="#40484C"/>
<path d="M33.1087 12.8571C33.1837 12.5732 33.2299 12.2893 33.2299 12H27.6914C27.6914 12.2893 27.7376 12.5732 27.8126 12.8571H33.1087Z" fill="#40484C"/>
<path d="M30.6927 32.2069C30.6234 32.164 30.5427 32.1426 30.4619 32.1426C30.3811 32.1426 30.3004 32.164 30.2311 32.2069C29.2792 32.7801 28.5754 33.4979 28.1484 34.2854H32.7696C32.3484 33.4979 31.6446 32.7801 30.6927 32.2069Z" fill="#40484C"/>
<path d="M27.8126 35.1431C27.7376 35.427 27.6914 35.7109 27.6914 36.0002H33.2299C33.2299 35.7109 33.1837 35.427 33.1087 35.1431H27.8126Z" fill="#40484C"/>
<path d="M23.6832 36V35.1429C23.6832 33.1822 24.7736 31.3179 26.7121 29.8982C24.7736 28.2911 23.6832 26.1964 23.6832 24C23.6832 21.8036 24.7736 19.7036 26.7121 18.1018C24.7736 16.6875 23.6832 14.8232 23.6832 12.8571V12C23.2505 12 22.7717 12 22.2986 12C22.2236 12 21.8832 12 21.7794 12C16.189 12.0268 13.8525 16.2857 13.8525 21.4768C13.8525 21.8518 13.7602 22.2214 13.5813 22.5536L12.1332 25.275C11.9602 25.5375 11.9602 25.8697 12.1217 26.1375C12.2832 26.4054 12.5948 26.5714 12.9236 26.5714H14.2621C14.5448 26.5714 14.7755 26.7857 14.7755 27.0482V30.5732C14.7755 31.2054 15.3294 31.7143 16.0044 31.7143H18.4736C18.9813 31.7143 19.3967 32.1 19.3967 32.5714V36H23.6832Z" fill="#40484C"/>
</g>
</g>
</g>
<defs>
<filter id="filter0_d_290_40841" x="-4" y="0" width="56" height="56" filterUnits="userSpaceOnUse" color-interpolation-filters="sRGB">
<feFlood flood-opacity="0" result="BackgroundImageFix"/>
<feColorMatrix in="SourceAlpha" type="matrix" values="0 0 0 0 0 0 0 0 0 0 0 0 0 0 0 0 0 0 127 0" result="hardAlpha"/>
<feOffset dy="4"/>
<feGaussianBlur stdDeviation="2"/>
<feComposite in2="hardAlpha" operator="out"/>
<feColorMatrix type="matrix" values="0 0 0 0 0 0 0 0 0 0 0 0 0 0 0 0 0 0 0.25 0"/>
<feBlend mode="normal" in2="BackgroundImageFix" result="effect1_dropShadow_290_40841"/>
<feBlend mode="normal" in="SourceGraphic" in2="effect1_dropShadow_290_40841" result="shape"/>
</filter>
<clipPath id="clip0_290_40841">
<rect x="4" y="4" width="40" height="40" rx="20" fill="white"/>
</clipPath>
<clipPath id="clip1_290_40841">
<rect width="24" height="24" fill="white" transform="translate(12 12)"/>
</clipPath>
</defs>
</svg>
